<?xml version="1.0" encoding="UTF-8" standalone="no" ?>
<!DOCTYPE svg PUBLIC "-//W3C//DTD SVG 1.1//EN" "http://www.w3.org/Graphics/SVG/1.1/DTD/svg11.dtd">
<svg xmlns="http://www.w3.org/2000/svg" xmlns:xlink="http://www.w3.org/1999/xlink" version="1.1" width="185" height="185" viewBox="0 0 185 185" xml:space="preserve">
<desc>Created with Fabric.js 5.3.0</desc>
<defs>
</defs>
<g transform="matrix(7.39 0 0 7.39 92.5 92.5)" id="-VgQFyZNmua-8JVa6___e"  >
<path style="stroke: rgb(24,63,124); stroke-width: 0; stroke-dasharray: none; stroke-linecap: butt; stroke-dashoffset: 0; stroke-linejoin: miter; stroke-miterlimit: 4; fill: rgb(183,135,9); fill-rule: nonzero; opacity: 1;"  transform=" translate(0, 0)" d="M -12.51691 -7.20644 C -12.51691 -10.13934 -10.13933 -12.516919999999999 -7.206429999999999 -12.516919999999999 L 7.20645 -12.516919999999999 L 7.20645 -12.516919999999999 C 10.13935 -12.516919999999999 12.51693 -10.139339999999999 12.51693 -7.206439999999999 L 12.51693 7.206440000000001 L 12.51693 7.206440000000001 C 12.51693 10.13934 10.13935 12.51692 7.20645 12.51692 L -7.206429999999999 12.51692 L -7.206429999999999 12.51692 C -10.13933 12.51692 -12.51691 10.13934 -12.51691 7.206440000000001 z" stroke-linecap="round" />
</g>
<g transform="matrix(6.5910810811 0 0 6.5910810811 92.5 92.5)" id="kw4Z9Tf5I1MWNRR3TFBYh"  >
<path style="stroke: rgb(24,63,124); stroke-width: 0; stroke-dasharray: none; stroke-linecap: butt; stroke-dashoffset: 0; stroke-linejoin: miter; stroke-miterlimit: 4; fill: rgb(130,98,0); fill-rule: nonzero; opacity: 1;"  transform=" translate(0, 0)" d="M -12.51691 -7.20644 C -12.51691 -10.13934 -10.13933 -12.516919999999999 -7.206429999999999 -12.516919999999999 L 7.20645 -12.516919999999999 L 7.20645 -12.516919999999999 C 10.13935 -12.516919999999999 12.51693 -10.139339999999999 12.51693 -7.206439999999999 L 12.51693 7.206440000000001 L 12.51693 7.206440000000001 C 12.51693 10.13934 10.13935 12.51692 7.20645 12.51692 L -7.206429999999999 12.51692 L -7.206429999999999 12.51692 C -10.13933 12.51692 -12.51691 10.13934 -12.51691 7.206440000000001 z" stroke-linecap="round" />
</g>
<g transform="matrix(1 0 0 1 92.5 92.5)" id="J86wxzjHsN2NjgL_Gscvh"  >
<g style=""   >
		<g transform="matrix(3.1956756757 0 0 0.9999988216 0 25.9591449173)" id="v-rKJTYqtb2N2Tf5UUgwK"  >
<path style="stroke: rgb(153,83,234); stroke-width: 0; stroke-dasharray: none; stroke-linecap: butt; stroke-dashoffset: 0; stroke-linejoin: miter; stroke-miterlimit: 4; fill: rgb(248,248,248); fill-rule: nonzero; opacity: 1;"  transform=" translate(0, 0)" d="M -12.51691 -12.51691 L 12.516919999999999 -12.51691 L 12.516919999999999 12.516919999999999 L -12.51691 12.516919999999999 z" stroke-linecap="round" />
</g>
		<g transform="matrix(2.7962162162 0 0 0.9999988216 0 20.9591301676)" id="tWZjj_PI3QHV7WMgnUiGK"  >
<path style="stroke: rgb(172,147,26); stroke-width: 0; stroke-dasharray: none; stroke-linecap: butt; stroke-dashoffset: 0; stroke-linejoin: miter; stroke-miterlimit: 4; fill: rgb(130,98,0); fill-rule: nonzero; opacity: 1;"  transform=" translate(0, 0)" d="M -12.51691 -12.51691 L 12.516919999999999 -12.51691 L 12.516919999999999 12.516919999999999 L -12.51691 12.516919999999999 z" stroke-linecap="round" />
</g>
		<g transform="matrix(0 -0.7337675936 0.7337675936 0 0 -8.7584573748)" id="kk-tNgsshWf_dnrqrH_fj"  >
<path style="stroke: none; stroke-width: 1; stroke-dasharray: none; stroke-linecap: butt; stroke-dashoffset: 0; stroke-linejoin: miter; stroke-miterlimit: 4; fill: rgb(255,255,255); fill-rule: nonzero; opacity: 1;"  transform=" translate(-40, -40)" d="M 41.17 72.5 L 80 40 L 41.17 7.5 L 41.17 28.105 L 0 28.105 L 0 51.952 L 41.17 51.952 L 41.17 72.5 z" stroke-linecap="round" />
</g>
</g>
</g>
</svg>