<?xml version="1.0" encoding="UTF-8" standalone="no" ?>
<!DOCTYPE svg PUBLIC "-//W3C//DTD SVG 1.1//EN" "http://www.w3.org/Graphics/SVG/1.1/DTD/svg11.dtd">
<svg xmlns="http://www.w3.org/2000/svg" xmlns:xlink="http://www.w3.org/1999/xlink" version="1.1" width="185" height="185" viewBox="0 0 185 185" xml:space="preserve">
<desc>Created with Fabric.js 5.3.0</desc>
<defs>
</defs>
<g transform="matrix(9.07 0 0 9.07 92.5 92.5)" id="MbjMaV2Cn6vWhGilay3_j"  >
<path style="stroke: rgb(47,45,247); stroke-width: 0; stroke-dasharray: none; stroke-linecap: butt; stroke-dashoffset: 0; stroke-linejoin: miter; stroke-miterlimit: 4; fill: rgb(208,0,0); fill-rule: nonzero; opacity: 1;"  transform=" translate(0, 0)" d="M -10.19846 -5.87162 C -10.19846 -8.26127 -8.261270000000001 -10.19846 -5.871620000000001 -10.19846 L 5.871619999999999 -10.19846 L 5.871619999999999 -10.19846 C 8.26127 -10.19846 10.198459999999999 -8.261270000000001 10.198459999999999 -5.871620000000001 L 10.198459999999999 5.871619999999999 L 10.198459999999999 5.871619999999999 C 10.198459999999999 8.26127 8.26127 10.198459999999999 5.871619999999999 10.198459999999999 L -5.871620000000001 10.198459999999999 L -5.871620000000001 10.198459999999999 C -8.261270000000001 10.198459999999999 -10.19846 8.26127 -10.19846 5.871619999999999 z" stroke-linecap="round" />
</g>
<g transform="matrix(8.0894594595 0 0 8.0894594595 92.5 92.5)" id="H8ay8OW3vooIGiXNYz6zZ"  >
<path style="stroke: rgb(47,45,247); stroke-width: 0; stroke-dasharray: none; stroke-linecap: butt; stroke-dashoffset: 0; stroke-linejoin: miter; stroke-miterlimit: 4; fill: rgb(80,0,0); fill-rule: nonzero; opacity: 1;"  transform=" translate(0, 0)" d="M -10.19846 -5.87162 C -10.19846 -8.26127 -8.261270000000001 -10.19846 -5.871620000000001 -10.19846 L 5.871619999999999 -10.19846 L 5.871619999999999 -10.19846 C 8.26127 -10.19846 10.198459999999999 -8.261270000000001 10.198459999999999 -5.871620000000001 L 10.198459999999999 5.871619999999999 L 10.198459999999999 5.871619999999999 C 10.198459999999999 8.26127 8.26127 10.198459999999999 5.871619999999999 10.198459999999999 L -5.871620000000001 10.198459999999999 L -5.871620000000001 10.198459999999999 C -8.261270000000001 10.198459999999999 -10.19846 8.26127 -10.19846 5.871619999999999 z" stroke-linecap="round" />
</g>
<g transform="matrix(1 0 0 1 92.5 90)" id="cDAckX4VAXhRFt19xhTvX"  >
<g style=""   >
		<g transform="matrix(2.3405405405 0 0 2.3405405405 0 2.5)" id="z7TD9ye8dVPRVTg5KIrWu"  >
<path style="stroke: rgb(245,46,233); stroke-width: 0; stroke-dasharray: none; stroke-linecap: butt; stroke-dashoffset: 0; stroke-linejoin: miter; stroke-miterlimit: 4; fill: rgb(208,0,0); fill-rule: nonzero; opacity: 1;"  transform=" translate(0, 0)" d="M 0 -10.68129 C 5.89607 -10.68129 10.68129 -5.896070000000001 10.68129 0 C 10.68129 5.89607 5.896070000000001 10.68129 0 10.68129 C -5.89607 10.68129 -10.68129 5.896070000000001 -10.68129 0 C -10.68129 -5.89607 -5.896070000000001 -10.68129 0 -10.68129 z" stroke-linecap="round" />
</g>
		<g transform="matrix(1.4043243243 0 0 1.4043243243 0 2.5)" id="e-9AE_W3HUamftgdiObFA"  >
<path style="stroke: rgb(245,46,233); stroke-width: 0; stroke-dasharray: none; stroke-linecap: butt; stroke-dashoffset: 0; stroke-linejoin: miter; stroke-miterlimit: 4; fill: rgb(80,0,0); fill-rule: nonzero; opacity: 1;"  transform=" translate(0, 0)" d="M 0 -10.68129 C 5.89607 -10.68129 10.68129 -5.896070000000001 10.68129 0 C 10.68129 5.89607 5.896070000000001 10.68129 0 10.68129 C -5.89607 10.68129 -10.68129 5.896070000000001 -10.68129 0 C -10.68129 -5.89607 -5.896070000000001 -10.68129 0 -10.68129 z" stroke-linecap="round" />
</g>
		<g transform="matrix(0.9362162162 0 0 0.9362162162 0 -12.5)" id="SWFzfVbdWbaPaQiDpLRy3"  >
<path style="stroke: rgb(71,117,194); stroke-width: 0; stroke-dasharray: none; stroke-linecap: butt; stroke-dashoffset: 0; stroke-linejoin: miter; stroke-miterlimit: 4; fill: rgb(80,0,0); fill-rule: nonzero; opacity: 1;"  transform=" translate(0, 0)" d="M -10.68129 -9.61316 C -10.68129 -10.20307 -10.20307 -10.68129 -9.61316 -10.68129 L 10.6813 -10.68129 L 10.6813 9.61317 L 10.6813 9.61317 C 10.6813 10.20308 10.20308 10.6813 9.61317 10.6813 L -10.68129 10.6813 z" stroke-linecap="round" />
</g>
		<g transform="matrix(0.4681081081 0 0 1.4043243243 0 -12.5)" id="eurXQOLjdP50w5BCoSAqQ"  >
<path style="stroke: rgb(71,117,194); stroke-width: 0; stroke-dasharray: none; stroke-linecap: butt; stroke-dashoffset: 0; stroke-linejoin: miter; stroke-miterlimit: 4; fill: rgb(208,0,0); fill-rule: nonzero; opacity: 1;"  transform=" translate(0, 0)" d="M -10.68129 -10.64569 C -10.68129 -10.66535 -10.63347 -10.68129 -10.574480000000001 -10.68129 L 10.681289999999997 -10.68129 L 10.681289999999997 10.645689999999998 L 10.681289999999997 10.645689999999998 C 10.681289999999997 10.665349999999998 10.633469999999997 10.681289999999999 10.574479999999998 10.681289999999999 L -10.68129 10.681289999999999 z" stroke-linecap="round" />
</g>
</g>
</g>
</svg>